<?xml version="1.0" encoding="UTF-8"?>
<svg xmlns="http://www.w3.org/2000/svg" version="1.1" width="1024" height="1024" viewBox="0 0 120 90" data-svm-document="document:svg-import-target" data-svm-quality="FINAL"><g data-svm-role="render-stack"><g data-svm-entity="entity:trace-structured-0000" data-svm-name="Bitmap trace structured component 1" data-svm-value="sha256:bb07b0f8dfdd7f96a6df26963718a9de9704badd8b7a78f575dd493728484a42" fill="#000000" stroke="none" stroke-width="1" opacity="1"><path d="M 76 19.3262468905 L 76.3586455255 26.0016443254 L 76.868941468 27.9017567228 L 77.6549875621 29.1712593284 L 78.9858448106 30.1345123219 L 81.4198515301 30.6878627874 L 93.3262468905 31 L 103.52769018 30.8195678153 L 106.668248842 30.3962307422 L 108.776385104 29.5749935999 L 110.057863659 28.223991827 L 110.718449199 26.2113608619 L 111 19.6737531095 L 110.7304383 12.922518069 L 110.088487901 10.8475930843 L 108.837314893 9.4571333395 L 106.773587092 8.61414149658 L 103.693972317 8.18162021764 L 93.6737531095 8 L 83.4723098194 8.18043218471 L 80.3317511577 8.60376925782 L 78.2236148954 9.42500640009 L 76.9421363406 10.776008173 L 76.2815508011 12.7886391381 Z" fill-rule="evenodd" /></g><g data-svm-entity="entity:trace-structured-0001" data-svm-name="Bitmap trace structured component 2" data-svm-value="sha256:cb64e66ffb2fed67c4e02480ef49fcbc2b65e7a20efe35e793e8b9d5ef83723f" fill="#000000" stroke="none" stroke-width="1" opacity="1"><path d="M 10 40.5 L 10.3583211832 44.3346745649 L 11.3820693119 48.1819114199 L 12.9944212545 51.930830592 L 15.1185538794 55.4705521083 L 17.6776440551 58.6901959958 L 20.59486865 61.4788822814 L 23.7934045326 63.7257309923 L 27.1964285714 65.3198621554 L 30.9577336984 66.376303637 L 34.6976923615 66.8892648053 L 38.3852904958 66.865860584 L 41.9895140359 66.3132058963 L 45.4793489168 65.2384156659 L 48.8237810733 63.6486048161 L 51.9917964402 61.5508882705 L 54.9523809524 58.9523809524 L 58.4837629946 54.7180929326 L 61.0061787391 50.1591130114 L 62.5196281857 45.3836718226 L 63.0241113346 40.5 L 62.5196281857 35.6163281774 L 61.0061787391 30.8408869886 L 58.4837629946 26.2819070674 L 54.9523809524 22.0476190476 L 50.8030776392 18.5651448583 L 46.3054891944 16.0460017788 L 41.5182513906 14.5157625718 L 36.5 14 L 31.3485329276 14.5654154182 L 26.4630228732 16.1751742911 L 21.9732009096 18.6995455457 L 18.0087981095 22.0087981095 L 14.6995455457 25.9732009096 L 12.1751742911 30.4630228732 L 10.5654154182 35.3485329276 Z M 26 40.5 L 26.2364079949 38.5454809644 L 26.9042916969 36.6503750906 L 29.2864445249 33.2864445249 L 32.6503750906 30.9042916969 L 34.5454809644 30.2364079949 L 36.5 30 L 38.4506061208 30.1597972973 L 40.1374006359 30.7094594595 L 41.7804948331 31.7543918919 L 43.6 33.4 L 46.2608641029 36.9491820514 L 46.9260801286 38.7244887822 L 47.1478188039 40.5 L 46.9260801286 42.2755112178 L 46.2608641029 44.0508179486 L 43.6 47.6 L 40.0508179486 50.2608641029 L 38.2755112178 50.9260801286 L 36.5 51.1478188039 L 34.7244887822 50.9260801286 L 32.9491820514 50.2608641029 L 29.4 47.6 L 27.7543918919 45.7804948331 L 26.7094594595 44.1374006359 L 26.1597972973 42.4506061208 Z" fill-rule="evenodd" /></g><g data-svm-entity="entity:trace-structured-added-4e8773a7efa2" data-svm-name="Bitmap trace structured added component" data-svm-value="sha256:090fd83fb02fe7377c711ca50179a57916dc2284a3cbee50f5d8c33823cd1b89" fill="#000000" stroke="none" stroke-width="1" opacity="1"><path d="M 80 70 L 80 85 L 113 85 L 113 70 Z" fill-rule="evenodd" /></g></g></svg>
